<svg width="892" height="746" viewBox="0 0 892 746" fill="none" xmlns="http://www.w3.org/2000/svg">
<g clip-path="url(#clip0_2:2)">
<path d="M231.237 436.113C193.074 398.543 176.955 359.349 185.85 325.751C197.264 282.634 247.973 252.823 324.975 243.961L325.259 246.434C249.33 255.172 199.394 284.315 188.256 326.388C179.6 359.085 195.484 397.423 232.984 434.34L231.237 436.113Z" fill="#CCDEF9"/>
<path d="M599.453 569.473C551.822 569.473 500.063 562.395 448.651 548.784C385.074 531.953 326.781 506.548 280.073 475.314L281.456 473.246C327.939 504.328 385.974 529.617 449.288 546.378C506.504 561.526 564.15 568.544 615.971 566.692L616.061 569.179C610.588 569.376 605.052 569.474 599.453 569.473Z" fill="#CCDEF9"/>
<path d="M708.724 553.82L707.926 551.463C750.526 537.06 777.17 513.858 784.978 484.364C794.904 446.87 773.34 403.36 724.258 361.85C674.926 320.129 603.788 285.511 523.946 264.374L524.583 261.968C604.774 283.198 676.258 317.995 725.865 359.95C775.722 402.115 797.571 446.526 787.385 485.001C779.352 515.341 752.152 539.138 708.724 553.82Z" fill="#CCDEF9"/>
<path d="M317.564 570.513C223.973 529.004 151.853 475.152 114.492 418.874L116.566 417.497C153.668 473.385 225.409 526.919 318.573 568.238L317.564 570.513Z" fill="#CCDEF9"/>
<path d="M646.624 642.424C636.971 642.424 627.152 642.209 617.169 641.778L617.276 639.291C691.778 642.517 757.513 633.601 807.386 613.503L808.317 615.812C764.811 633.342 709.359 642.424 646.624 642.424Z" fill="#CCDEF9"/>
<path d="M592.321 246.193C576.852 241.156 560.941 236.467 545.03 232.255C453.466 208.015 363.458 199.408 284.733 207.37L284.482 204.894C363.501 196.905 453.817 205.532 545.667 229.848C561.623 234.073 577.579 238.776 593.092 243.827L592.321 246.193Z" fill="#CCDEF9"/>
<path d="M172.745 439.846C134.581 402.277 118.463 363.083 127.357 329.484C138.772 286.368 189.481 256.557 266.482 247.695L266.767 250.168C190.837 258.906 140.902 288.048 129.764 330.121C121.107 362.819 136.992 401.157 174.492 438.073L172.745 439.846Z" fill="#CCDEF9"/>
<path d="M540.961 573.206C493.33 573.206 441.571 566.128 390.159 552.518C326.582 535.686 268.288 510.281 221.581 479.048L222.964 476.979C269.447 508.061 327.482 533.35 390.796 550.111C448.012 565.259 505.657 572.278 557.479 570.426L557.568 572.912C552.096 573.109 546.56 573.207 540.961 573.206Z" fill="#CCDEF9"/>
<path d="M650.232 557.554L649.434 555.196C692.033 540.793 718.677 517.592 726.486 488.098C736.412 450.603 714.848 407.094 665.766 365.584C616.434 323.863 545.296 289.245 465.454 268.108L466.091 265.702C546.282 286.931 617.766 321.729 667.373 363.684C717.23 405.849 739.078 450.26 728.892 488.734C720.86 519.074 693.659 542.871 650.232 557.554Z" fill="#CCDEF9"/>
<path d="M259.072 574.247C165.48 532.738 93.361 478.885 56 422.608L58.0734 421.231C95.1762 477.119 166.917 530.652 260.081 571.972L259.072 574.247Z" fill="#CCDEF9"/>
<path d="M588.132 646.158C578.479 646.158 568.66 645.942 558.677 645.511L558.784 643.025C633.286 646.25 699.02 637.334 748.893 617.236L749.824 619.545C706.319 637.075 650.867 646.158 588.132 646.158Z" fill="#CCDEF9"/>
<path d="M533.829 249.926C518.36 244.89 502.449 240.201 486.538 235.988C394.974 211.748 304.966 203.142 226.24 211.104L225.99 208.627C305.009 200.639 395.325 209.266 487.174 233.582C503.131 237.806 519.087 242.509 534.6 247.56L533.829 249.926Z" fill="#CCDEF9"/>
<path d="M98.4242 373.179C116.311 353.125 144.843 340.902 170.699 348.219C146.846 365.1 129.732 389.874 122.386 418.158C119.592 429.076 117.622 441.51 108.542 448.186C102.892 452.34 95.4055 453.332 88.4574 452.386C81.5089 451.44 74.939 448.738 68.4577 446.06L66.7137 446.211C71.7278 419.811 80.5377 393.234 98.4242 373.179Z" fill="#CCDEF9"/>
<path d="M170.62 348.777C149.003 354.012 129.584 365.924 115.122 382.823C111.944 386.406 109.351 390.467 107.437 394.857C105.712 399.194 105.179 403.914 105.894 408.526C106.475 412.84 107.569 417.186 107.091 421.566C106.813 423.804 106.065 425.959 104.896 427.888C103.727 429.817 102.163 431.477 100.307 432.759C95.7669 436.075 90.3058 437.561 84.9148 438.829C78.9292 440.237 72.6897 441.605 67.8104 445.582C67.2192 446.064 66.5059 445.119 67.0962 444.638C75.5853 437.717 87.3832 438.605 96.7756 433.578C101.158 431.233 104.861 427.552 105.761 422.502C106.548 418.085 105.424 413.603 104.798 409.24C104.034 404.751 104.381 400.143 105.809 395.818C107.492 391.345 109.925 387.191 113.002 383.533C119.799 375.189 127.866 367.965 136.906 362.126C147.188 355.405 158.543 350.493 170.48 347.601C171.219 347.422 171.354 348.6 170.62 348.777H170.62Z" fill="white"/>
<path d="M119.458 377.108C116.952 374.296 115.527 370.686 115.438 366.921C115.348 363.156 116.6 359.482 118.969 356.554C119.45 355.964 120.391 356.684 119.909 357.276C117.697 359.997 116.532 363.42 116.622 366.926C116.713 370.432 118.054 373.789 120.403 376.393C120.913 376.96 119.965 377.671 119.458 377.108Z" fill="white"/>
<path d="M105.312 406.378C112.993 406.888 120.585 404.484 126.573 399.646C127.166 399.166 127.879 400.111 127.287 400.591C121.047 405.614 113.141 408.099 105.149 407.551C104.387 407.498 104.554 406.325 105.312 406.378Z" fill="white"/>
<path d="M147.454 356.953C148.197 358.243 149.248 359.328 150.514 360.111C151.78 360.894 153.221 361.35 154.706 361.439C155.469 361.482 155.3 362.655 154.543 362.612C152.902 362.506 151.312 362 149.911 361.139C148.511 360.277 147.343 359.085 146.509 357.667C146.419 357.54 146.381 357.384 146.403 357.23C146.424 357.076 146.503 356.936 146.624 356.838C146.75 356.744 146.907 356.703 147.063 356.725C147.218 356.747 147.359 356.829 147.454 356.953L147.454 356.953Z" fill="white"/>
<path d="M207.403 431.47C206.926 431.457 206.45 431.444 205.967 431.438C199.558 431.291 193.149 431.665 186.801 432.556C186.309 432.617 185.811 432.687 185.322 432.762C170.051 435.072 155.342 440.197 141.942 447.877C136.613 450.938 131.524 454.399 126.72 458.232C120.086 463.526 113.314 469.794 105.547 472.507C104.739 472.799 103.915 473.041 103.078 473.231L67.0331 448.327C66.9796 448.23 66.92 448.14 66.8661 448.042L65.3815 447.113C65.6155 446.898 65.8628 446.68 66.0967 446.465C66.2319 446.34 66.3752 446.22 66.5103 446.095C66.603 446.013 66.6961 445.932 66.7751 445.853C66.8058 445.826 66.837 445.798 66.8621 445.779C66.9411 445.7 67.0228 445.635 67.096 445.564C68.4748 444.342 69.8647 443.128 71.2655 441.921C71.2712 441.913 71.2712 441.913 71.2849 441.91C81.8709 432.611 93.5225 424.601 105.996 418.048C106.371 417.857 106.751 417.658 107.142 417.479C112.773 414.654 118.626 412.293 124.641 410.422C127.938 409.407 131.285 408.561 134.668 407.885C143.412 406.155 152.374 405.812 161.225 406.867C178.868 408.973 195.642 416.699 206.578 430.414C206.857 430.765 207.129 431.111 207.403 431.47Z" fill="#B7D1F7"/>
<path d="M207.006 431.872C186.594 423.036 163.917 420.856 142.195 425.641C137.501 426.589 132.985 428.27 128.814 430.623C124.825 433.047 121.558 436.495 119.353 440.609C117.219 444.403 115.476 448.531 112.457 451.74C110.887 453.36 108.993 454.63 106.898 455.466C104.804 456.303 102.556 456.687 100.302 456.594C94.6803 456.507 89.4251 454.406 84.3573 452.173C78.7304 449.693 72.9253 447.028 66.6345 447.267C65.8722 447.295 65.872 446.111 66.633 446.082C77.5779 445.667 86.4629 453.48 96.9888 455.121C101.9 455.887 107.072 455.177 110.832 451.686C114.119 448.634 115.921 444.379 118.048 440.518C120.141 436.474 123.192 433.004 126.935 430.41C130.973 427.852 135.416 426 140.076 424.932C150.526 422.362 161.316 421.451 172.05 422.232C184.305 423.056 196.33 425.97 207.602 430.848C208.3 431.151 207.699 432.172 207.006 431.872H207.006Z" fill="white"/>
<path d="M149.099 423.689C148.791 419.935 149.827 416.195 152.022 413.135C154.217 410.075 157.429 407.895 161.083 406.984C161.823 406.802 162.14 407.943 161.399 408.125C157.995 408.967 155.003 410.998 152.965 413.852C150.927 416.706 149.975 420.194 150.283 423.687C150.349 424.447 149.164 424.444 149.099 423.689Z" fill="white"/>
<path d="M120.181 438.542C126.007 443.575 133.516 446.226 141.21 445.968C141.973 445.942 141.973 447.126 141.212 447.152C133.204 447.406 125.396 444.631 119.345 439.381C118.768 438.88 119.608 438.044 120.181 438.542V438.542Z" fill="white"/>
<path d="M183.586 424.452C183.403 425.929 183.589 427.428 184.129 428.816C184.668 430.203 185.544 431.435 186.677 432.4C187.259 432.893 186.419 433.728 185.84 433.238C184.593 432.166 183.628 430.805 183.029 429.273C182.429 427.742 182.214 426.087 182.402 424.453C182.407 424.298 182.47 424.15 182.58 424.04C182.69 423.93 182.838 423.866 182.993 423.86C183.15 423.861 183.3 423.923 183.411 424.034C183.522 424.145 183.585 424.295 183.586 424.452H183.586Z" fill="white"/>
<path d="M799.282 537.575C789.176 512.676 766.412 491.575 739.6 489.775C756.393 513.691 764.185 542.776 761.597 571.883C760.559 583.105 758.235 595.479 764.543 604.818C768.468 610.629 775.186 614.08 782.047 615.524C788.91 616.968 796.006 616.632 803.01 616.288L804.602 617.017C808.752 590.467 809.388 562.474 799.282 537.575Z" fill="#CCDEF9"/>
<path d="M739.487 490.328C758.088 502.523 772.374 520.269 780.315 541.046C782.103 545.488 783.181 550.185 783.507 554.963C783.675 559.627 782.59 564.252 780.366 568.355C778.369 572.223 775.879 575.948 774.857 580.234C774.366 582.436 774.347 584.716 774.799 586.926C775.252 589.136 776.167 591.225 777.483 593.056C780.645 597.705 785.289 600.94 789.94 603.946C795.105 607.284 800.522 610.669 803.78 616.056C804.175 616.708 805.165 616.057 804.77 615.406C799.101 606.034 787.691 602.906 780.534 595.015C777.195 591.332 774.945 586.622 775.795 581.562C776.538 577.138 779.103 573.295 781.159 569.396C783.387 565.424 784.609 560.968 784.718 556.415C784.636 551.636 783.741 546.906 782.072 542.427C778.475 532.284 773.306 522.769 766.753 514.231C759.329 504.446 750.286 496.003 740.014 489.267C739.378 488.85 738.855 489.914 739.487 490.328V490.328Z" fill="white"/>
<path d="M778.151 534.205C781.456 532.4 784.012 529.478 785.362 525.963C786.711 522.447 786.768 518.566 785.52 515.012C785.265 514.294 784.137 514.656 784.392 515.376C785.56 518.682 785.508 522.298 784.244 525.569C782.98 528.84 780.589 531.552 777.502 533.215C776.831 533.577 777.485 534.565 778.151 534.205Z" fill="white"/>
<path d="M781.637 566.527C774.231 564.426 767.889 559.611 763.875 553.041C763.478 552.39 762.488 553.04 762.885 553.691C767.074 560.519 773.684 565.517 781.396 567.687C782.131 567.893 782.368 566.733 781.637 566.527V566.527Z" fill="white"/>
<path d="M758.558 505.814C757.425 506.779 756.07 507.447 754.614 507.759C753.159 508.071 751.649 508.017 750.22 507.601C749.488 507.385 749.252 508.546 749.979 508.76C751.56 509.213 753.228 509.271 754.837 508.93C756.446 508.589 757.946 507.859 759.208 506.804C759.335 506.715 759.424 506.58 759.455 506.428C759.487 506.275 759.459 506.117 759.378 505.984C759.292 505.853 759.157 505.762 759.003 505.73C758.85 505.698 758.69 505.728 758.558 505.814H758.558Z" fill="white"/>
<path d="M677.051 555.847C677.505 555.995 677.958 556.142 678.414 556.299C684.5 558.315 690.411 560.822 696.09 563.795C696.533 564.017 696.978 564.25 697.413 564.485C711.019 571.793 723.15 581.564 733.19 593.301C737.18 597.975 740.809 602.945 744.046 608.17C748.515 615.385 752.786 623.564 759.19 628.73C759.852 629.277 760.547 629.782 761.271 630.242L803.589 618.902C803.673 618.828 803.759 618.763 803.843 618.689L805.553 618.314C805.405 618.032 805.245 617.744 805.097 617.463C805.012 617.3 804.917 617.139 804.832 616.975C804.772 616.867 804.712 616.759 804.664 616.658C804.644 616.622 804.624 616.586 804.607 616.559C804.559 616.458 804.504 616.37 804.459 616.278C803.571 614.664 802.67 613.053 801.757 611.445C801.754 611.436 801.754 611.436 801.742 611.429C794.897 599.113 786.615 587.653 777.071 577.288C776.782 576.983 776.49 576.668 776.182 576.367C771.828 571.814 767.109 567.624 762.073 563.839C759.308 561.776 756.441 559.854 753.482 558.08C745.828 553.512 737.503 550.177 728.812 548.196C711.487 544.249 693.092 545.888 678.183 555.13C677.802 555.367 677.43 555.601 677.051 555.847Z" fill="#B7D1F7"/>
<path d="M677.29 556.359C699.485 554.897 721.575 560.466 740.425 572.274C744.527 574.744 748.215 577.845 751.353 581.463C754.295 585.087 756.213 589.432 756.908 594.048C757.642 598.338 757.896 602.812 759.661 606.849C760.595 608.903 761.952 610.735 763.644 612.227C765.336 613.719 767.324 614.836 769.478 615.506C774.801 617.314 780.457 617.101 785.981 616.701C792.114 616.257 798.477 615.698 804.322 618.037C805.03 618.32 805.428 617.205 804.721 616.922C794.552 612.853 783.558 617.224 773.093 615.232C768.21 614.303 763.577 611.896 761.21 607.345C759.139 603.365 758.873 598.752 758.167 594.401C757.555 589.889 755.848 585.595 753.194 581.894C750.251 578.128 746.689 574.889 742.659 572.318C733.68 566.385 723.824 561.9 713.452 559.028C701.633 555.685 689.329 554.389 677.072 555.194C676.314 555.245 676.537 556.409 677.29 556.359V556.359Z" fill="white"/>
<path d="M734.579 568.114C736.131 564.683 736.412 560.812 735.373 557.192C734.334 553.572 732.042 550.439 728.907 548.353C728.271 547.933 727.589 548.902 728.225 549.322C731.149 551.259 733.283 554.178 734.244 557.55C735.205 560.923 734.928 564.528 733.464 567.715C733.147 568.408 734.263 568.803 734.579 568.114L734.579 568.114Z" fill="white"/>
<path d="M756.822 591.823C749.644 594.604 741.68 594.578 734.521 591.749C733.811 591.468 733.413 592.583 734.121 592.864C741.577 595.794 749.864 595.805 757.328 592.894C758.039 592.616 757.529 591.547 756.822 591.823V591.823Z" fill="white"/>
<path d="M701.841 557.242C701.517 558.695 700.838 560.044 699.864 561.17C698.889 562.295 697.651 563.161 696.259 563.689C695.545 563.958 696.056 565.027 696.765 564.76C698.3 564.169 699.667 563.211 700.746 561.97C701.825 560.729 702.584 559.243 702.956 557.641C703.004 557.493 702.993 557.333 702.927 557.192C702.861 557.051 702.743 556.941 702.598 556.884C702.45 556.832 702.288 556.84 702.146 556.907C702.004 556.974 701.895 557.095 701.841 557.242V557.242Z" fill="white"/>
<path d="M267.224 346.197C272.723 346.197 277.18 341.739 277.18 336.241C277.18 330.742 272.723 326.285 267.224 326.285C261.725 326.285 257.268 330.742 257.268 336.241C257.268 341.739 261.725 346.197 267.224 346.197Z" fill="#FD6584"/>
<path d="M648.317 444.424C649.198 438.997 645.512 433.883 640.085 433.002C634.657 432.121 629.543 435.807 628.662 441.235C627.782 446.662 631.467 451.776 636.895 452.657C642.323 453.538 647.437 449.852 648.317 444.424Z" fill="#B7D1F7"/>
<path d="M266.819 234.156C272.318 234.156 276.775 229.698 276.775 224.2C276.775 218.701 272.318 214.244 266.819 214.244C261.321 214.244 256.863 218.701 256.863 224.2C256.863 229.698 261.321 234.156 266.819 234.156Z" fill="#B7D1F7"/>
<path d="M418.644 745.194C613.048 745.194 770.644 737.135 770.644 727.194C770.644 717.253 613.048 709.194 418.644 709.194C224.239 709.194 66.6436 717.253 66.6436 727.194C66.6436 737.135 224.239 745.194 418.644 745.194Z" fill="#F2F2F2"/>
<path d="M624.297 172.947H620.298V63.4019C620.298 46.5867 613.619 30.4602 601.728 18.57C589.838 6.67985 573.712 1.85653e-05 556.897 1.13715e-10H324.81C307.995 -3.18259e-05 291.868 6.67975 279.978 18.5699C268.088 30.46 261.408 46.5865 261.408 63.4017V664.376C261.408 681.191 268.088 697.318 279.978 709.208C291.868 721.098 307.994 727.778 324.81 727.778H556.896C573.711 727.778 589.838 721.098 601.728 709.208C613.618 697.318 620.298 681.192 620.298 664.376V250.923H624.297L624.297 172.947Z" fill="#3F3D56"/>
<path d="M606.803 63.8443V663.934C606.803 676.492 601.815 688.536 592.935 697.416C584.055 706.295 572.011 711.284 559.454 711.284H326.253C313.696 711.284 301.652 706.295 292.772 697.416C283.892 688.536 278.904 676.492 278.904 663.934V63.8443C278.904 51.2864 283.892 39.2428 292.772 30.3631C301.652 21.4833 313.696 16.4945 326.253 16.4943H354.543C353.153 19.9103 352.624 23.6155 353.002 27.2841C353.38 30.9527 354.654 34.4722 356.711 37.533C358.768 40.5938 361.546 43.1022 364.8 44.8374C368.055 46.5726 371.686 47.4816 375.374 47.4843H508.333C512.021 47.4816 515.652 46.5726 518.907 44.8373C522.161 43.1021 524.939 40.5937 526.996 37.5329C529.053 34.4721 530.327 30.9526 530.705 27.2841C531.083 23.6155 530.554 19.9103 529.163 16.4943H559.454C572.011 16.4945 584.055 21.4833 592.935 30.3631C601.815 39.2428 606.803 51.2864 606.803 63.8443V63.8443Z" fill="white"/>
<path d="M533.53 280.83C531.98 281.64 530.403 282.407 528.8 283.13C527.34 283.79 525.857 284.41 524.35 284.99C523.8 285.2 523.24 285.41 522.68 285.62C518.253 287.226 513.705 288.48 509.08 289.37C506.79 289.82 504.47 290.173 502.12 290.43C500.18 290.65 498.22 290.807 496.24 290.9C494.83 290.97 493.42 291 492 291C486.377 291.002 480.765 290.477 475.24 289.43C473.8 289.17 472.39 288.86 470.98 288.52C464.16 286.886 457.557 284.448 451.31 281.26C450.75 280.98 450.19 280.68 449.63 280.39C448.8 279.95 447.99 279.49 447.18 279.01C447.57 278.47 447.99 277.94 448.42 277.42C453.099 271.621 458.948 266.873 465.585 263.486C472.222 260.099 479.498 258.148 486.94 257.762C494.381 257.375 501.82 258.56 508.773 261.241C515.725 263.922 522.035 268.038 527.29 273.32C529.114 275.15 530.805 277.109 532.35 279.18C532.76 279.72 533.15 280.27 533.53 280.83Z" fill="#FE725D"/>
<path d="M493.996 236.903C518.246 236.903 537.905 217.244 537.905 192.993C537.905 168.742 518.246 149.083 493.996 149.083C469.745 149.083 450.086 168.742 450.086 192.993C450.086 217.244 469.745 236.903 493.996 236.903Z" fill="#2F2E41"/>
<path d="M505.675 236.965C521.512 228.307 527.332 208.451 518.675 192.613C510.017 176.776 490.16 170.955 474.323 179.613C458.486 188.27 452.665 208.127 461.323 223.965C469.98 239.802 489.837 245.622 505.675 236.965Z" fill="#A0616A"/>
<path d="M524.339 187.733C516.871 192.88 508.007 195.619 498.937 195.583C502.172 197.826 505.855 199.342 509.733 200.025C497.674 202.611 485.21 202.681 473.123 200.23C470.436 199.799 467.843 198.909 465.459 197.598C464.271 196.934 463.235 196.028 462.42 194.938C461.605 193.848 461.029 192.599 460.728 191.271C459.925 186.683 463.501 182.514 467.216 179.704C472.905 175.468 479.465 172.55 486.42 171.16C493.376 169.77 500.553 169.944 507.433 171.668C511.925 172.829 516.426 174.791 519.344 178.399C522.262 182.007 523.126 187.569 520.346 191.284L524.339 187.733Z" fill="#2F2E41"/>
<path d="M492 111C472.372 110.997 453.282 117.412 437.638 129.266C421.994 141.121 410.656 157.765 405.35 176.662C400.044 195.559 401.063 215.673 408.25 233.938C415.437 252.202 428.399 267.616 445.16 277.83L445.74 278.17C446.22 278.46 446.7 278.74 447.18 279.01C447.99 279.49 448.8 279.95 449.63 280.39C450.19 280.68 450.75 280.98 451.31 281.26C457.557 284.448 464.16 286.885 470.98 288.52C472.39 288.86 473.8 289.17 475.24 289.43C480.765 290.477 486.377 291.002 492 291C493.42 291 494.83 290.97 496.24 290.9C498.22 290.81 500.18 290.653 502.12 290.43C504.47 290.17 506.79 289.817 509.08 289.37C513.705 288.48 518.253 287.226 522.68 285.62C523.24 285.41 523.8 285.2 524.35 284.99C525.86 284.41 527.343 283.79 528.8 283.13C530.4 282.41 531.977 281.643 533.53 280.83C549.098 272.677 561.965 260.182 570.57 244.86C570.61 244.78 570.66 244.7 570.7 244.62C575.291 236.381 578.548 227.468 580.35 218.21C582.88 205.177 582.497 191.747 579.228 178.88C575.959 166.012 569.886 154.027 561.443 143.782C553 133.537 542.397 125.285 530.391 119.618C518.386 113.95 505.276 111.008 492 111H492ZM569.06 243.45C568.98 243.59 568.91 243.73 568.83 243.86C560.397 258.956 547.71 271.238 532.35 279.18C530.82 279.98 529.263 280.73 527.68 281.43C526.37 282.02 525.03 282.58 523.68 283.1C523.11 283.32 522.53 283.54 521.95 283.74C518.125 285.137 514.205 286.26 510.22 287.1C507.264 287.729 504.276 288.2 501.27 288.51C499.42 288.71 497.54 288.85 495.65 288.92C494.44 288.97 493.22 289 492 289C486.558 289.006 481.127 288.501 475.78 287.49C472.527 286.89 469.312 286.102 466.15 285.13C461.334 283.642 456.653 281.745 452.16 279.46C451.64 279.19 451.12 278.92 450.61 278.64C449.88 278.25 449.14 277.85 448.42 277.42C447.88 277.12 447.34 276.8 446.81 276.48C446.5 276.3 446.19 276.11 445.88 275.92C431.184 266.895 419.462 253.755 412.167 238.128C404.872 222.502 402.325 205.078 404.842 188.017C407.36 170.957 414.83 155.011 426.328 142.157C437.826 129.304 452.844 120.109 469.519 115.714C486.195 111.318 503.794 111.915 520.134 117.43C536.473 122.946 550.834 133.137 561.434 146.74C572.034 160.343 578.408 176.758 579.763 193.95C581.119 211.142 577.397 228.354 569.06 243.45H569.06Z" fill="#3F3D56"/>
<path d="M471.76 149.689C471.287 144.721 465.201 141.663 460.442 143.164C455.682 144.664 452.557 149.456 451.613 154.357C451.158 156.42 451.116 158.553 451.487 160.634C451.859 162.714 452.637 164.7 453.778 166.479C456.184 169.941 460.605 172.102 464.728 171.223C469.435 170.22 472.696 165.623 473.63 160.902C474.563 156.18 473.636 151.313 472.711 146.59L471.76 149.689Z" fill="#2F2E41"/>
<path d="M538.742 156.786C538.269 151.818 532.183 148.76 527.424 150.261C522.664 151.761 519.54 156.554 518.595 161.454C518.141 163.517 518.098 165.65 518.47 167.731C518.841 169.811 519.62 171.797 520.761 173.576C523.166 177.038 527.587 179.199 531.711 178.32C536.418 177.317 539.679 172.721 540.612 167.999C541.545 163.278 540.618 158.41 539.693 153.687L538.742 156.786Z" fill="#2F2E41"/>
<path d="M334.584 243.126C333.961 243.125 333.345 242.995 332.776 242.743C332.207 242.491 331.696 242.122 331.277 241.662L281.655 187.528C281.092 186.915 280.408 186.426 279.646 186.091C278.884 185.756 278.061 185.582 277.229 185.581H15.0093C11.0299 185.577 7.21487 183.994 4.40105 181.18C1.58723 178.366 0.00446778 174.551 0 170.572V76.0093C0.00446514 72.0299 1.58723 68.2149 4.40105 65.401C7.21487 62.5872 11.0299 61.0045 15.0093 61H354.734C358.714 61.0045 362.529 62.5872 365.343 65.401C368.157 68.2149 369.739 72.0299 369.744 76.0093V170.572C369.739 174.551 368.157 178.366 365.343 181.18C362.529 183.994 358.714 185.577 354.734 185.581H345.103C343.511 185.583 341.985 186.216 340.859 187.342C339.733 188.468 339.1 189.994 339.099 191.586V238.619C339.102 239.527 338.83 240.415 338.317 241.164C337.805 241.914 337.076 242.489 336.228 242.815C335.704 243.02 335.147 243.125 334.584 243.126V243.126Z" fill="white"/>
<path d="M334.584 243.126C333.961 243.125 333.345 242.995 332.776 242.743C332.207 242.491 331.696 242.122 331.277 241.662L281.655 187.528C281.092 186.915 280.408 186.426 279.646 186.091C278.884 185.756 278.061 185.582 277.229 185.581H15.0093C11.0299 185.577 7.21487 183.994 4.40105 181.18C1.58723 178.366 0.00446778 174.551 0 170.572V76.0093C0.00446514 72.0299 1.58723 68.2149 4.40105 65.401C7.21487 62.5872 11.0299 61.0045 15.0093 61H354.734C358.714 61.0045 362.529 62.5872 365.343 65.401C368.157 68.2149 369.739 72.0299 369.744 76.0093V170.572C369.739 174.551 368.157 178.366 365.343 181.18C362.529 183.994 358.714 185.577 354.734 185.581H345.103C343.511 185.583 341.985 186.216 340.859 187.342C339.733 188.468 339.1 189.994 339.099 191.586V238.619C339.102 239.527 338.83 240.415 338.317 241.164C337.805 241.914 337.076 242.489 336.228 242.815C335.704 243.02 335.147 243.125 334.584 243.126V243.126ZM15.0093 63C11.5602 63.0039 8.25349 64.3758 5.81462 66.8146C3.37575 69.2535 2.00389 72.5602 2 76.0093V170.572C2.0039 174.021 3.37577 177.328 5.81464 179.766C8.25351 182.205 11.5602 183.577 15.0093 183.581H277.229C278.338 183.582 279.436 183.814 280.451 184.26C281.467 184.707 282.379 185.36 283.129 186.177L332.751 240.31C333.092 240.682 333.537 240.942 334.028 241.056C334.519 241.171 335.033 241.134 335.503 240.951C335.973 240.768 336.377 240.448 336.661 240.032C336.946 239.616 337.098 239.123 337.099 238.619V191.586C337.101 189.464 337.945 187.429 339.446 185.928C340.946 184.428 342.981 183.583 345.103 183.581H354.734C358.184 183.577 361.49 182.205 363.929 179.766C366.368 177.328 367.74 174.021 367.744 170.572V76.0093C367.74 72.5602 366.368 69.2535 363.929 66.8146C361.49 64.3758 358.184 63.0039 354.734 63H15.0093Z" fill="#3F3D56"/>
<path d="M36.816 102.714C44.0696 102.714 49.9497 96.8341 49.9497 89.5806C49.9497 82.327 44.0696 76.4469 36.816 76.4469C29.5625 76.4469 23.6823 82.327 23.6823 89.5806C23.6823 96.8341 29.5625 102.714 36.816 102.714Z" fill="#FE725D"/>
<path d="M339.412 162.254H30.332C29.4114 162.255 28.4996 162.074 27.6488 161.723C26.798 161.371 26.0248 160.856 25.3735 160.205C24.7222 159.555 24.2055 158.782 23.8529 157.932C23.5004 157.081 23.3189 156.17 23.3189 155.249C23.3189 154.329 23.5004 153.417 23.8529 152.567C24.2055 151.716 24.7222 150.944 25.3735 150.293C26.0248 149.643 26.798 149.127 27.6488 148.775C28.4996 148.424 29.4114 148.243 30.332 148.244H339.412C341.268 148.247 343.048 148.986 344.359 150.299C345.671 151.612 346.408 153.393 346.408 155.249C346.408 157.105 345.671 158.886 344.359 160.199C343.048 161.513 341.268 162.252 339.412 162.254V162.254Z" fill="#E6E6E6"/>
<path d="M238.72 132.484H30.332C29.4114 132.485 28.4996 132.305 27.6488 131.953C26.798 131.602 26.0248 131.086 25.3735 130.435C24.7222 129.785 24.2055 129.012 23.8529 128.162C23.5004 127.311 23.3189 126.4 23.3189 125.479C23.3189 124.559 23.5004 123.647 23.8529 122.797C24.2055 121.946 24.7222 121.174 25.3735 120.523C26.0248 119.873 26.798 119.357 27.6488 119.006C28.4996 118.654 29.4114 118.474 30.332 118.475H238.72C240.578 118.475 242.36 119.213 243.673 120.526C244.987 121.84 245.725 123.622 245.725 125.479C245.725 127.337 244.987 129.119 243.673 130.432C242.36 131.746 240.578 132.484 238.72 132.484Z" fill="#E6E6E6"/>
<path d="M552.515 523.815C551.668 523.489 550.939 522.914 550.426 522.164C549.914 521.415 549.641 520.527 549.645 519.619V472.586C549.643 470.994 549.01 469.468 547.885 468.342C546.759 467.216 545.233 466.583 543.641 466.581H534.009C530.03 466.577 526.215 464.994 523.401 462.18C520.587 459.366 519.004 455.551 519 451.572V357.009C519.004 353.03 520.587 349.215 523.401 346.401C526.215 343.587 530.03 342.004 534.009 342H873.734C877.714 342.004 881.529 343.587 884.343 346.401C887.157 349.215 888.739 353.03 888.744 357.009V451.572C888.739 455.551 887.157 459.366 884.343 462.18C881.529 464.994 877.714 466.577 873.734 466.581H611.515C610.683 466.582 609.859 466.756 609.098 467.091C608.336 467.426 607.652 467.915 607.089 468.528L557.466 522.662C557.048 523.122 556.537 523.49 555.968 523.743C555.398 523.995 554.783 524.125 554.16 524.126C553.597 524.125 553.039 524.02 552.515 523.815V523.815Z" fill="white"/>
<path d="M552.515 523.815C551.668 523.489 550.939 522.914 550.426 522.164C549.914 521.415 549.641 520.527 549.645 519.619V472.586C549.643 470.994 549.01 469.468 547.885 468.342C546.759 467.216 545.233 466.583 543.641 466.581H534.009C530.03 466.577 526.215 464.994 523.401 462.18C520.587 459.366 519.004 455.551 519 451.572V357.009C519.004 353.03 520.587 349.215 523.401 346.401C526.215 343.587 530.03 342.004 534.009 342H873.734C877.714 342.004 881.529 343.587 884.343 346.401C887.157 349.215 888.739 353.03 888.744 357.009V451.572C888.739 455.551 887.157 459.366 884.343 462.18C881.529 464.994 877.714 466.577 873.734 466.581H611.515C610.683 466.582 609.859 466.756 609.098 467.091C608.336 467.426 607.652 467.915 607.089 468.528L557.466 522.662C557.048 523.122 556.537 523.49 555.968 523.743C555.398 523.995 554.783 524.125 554.16 524.126C553.597 524.125 553.039 524.02 552.515 523.815V523.815ZM534.009 344C530.56 344.004 527.253 345.376 524.815 347.815C522.376 350.254 521.004 353.56 521 357.009V451.572C521.004 455.021 522.376 458.328 524.815 460.766C527.253 463.205 530.56 464.577 534.009 464.581H543.641C545.763 464.583 547.798 465.428 549.298 466.928C550.799 468.429 551.643 470.464 551.645 472.586V519.619C551.645 520.123 551.798 520.616 552.082 521.032C552.367 521.448 552.771 521.768 553.241 521.951C553.71 522.134 554.225 522.171 554.716 522.056C555.207 521.942 555.652 521.682 555.992 521.31L605.615 467.177C606.365 466.36 607.277 465.707 608.293 465.26C609.308 464.814 610.405 464.582 611.515 464.581H873.734C877.184 464.577 880.49 463.205 882.929 460.766C885.368 458.328 886.74 455.021 886.744 451.572V357.009C886.74 353.56 885.368 350.254 882.929 347.815C880.49 345.376 877.184 344.004 873.734 344H534.009Z" fill="#3F3D56"/>
<path d="M448.975 578.884C435.043 587.805 418.902 592.67 402.361 592.933C385.82 593.196 369.533 588.847 355.324 580.374C357.824 575.722 360.991 571.46 364.725 567.724C370.486 561.936 377.497 557.545 385.22 554.889C392.943 552.233 401.172 551.382 409.275 552.403C417.378 553.424 425.139 556.288 431.962 560.777C438.785 565.265 444.489 571.258 448.634 578.294C448.744 578.484 448.864 578.684 448.975 578.884Z" fill="#FE725D"/>
<path d="M398.239 531.064C422.651 531.064 442.441 511.274 442.441 486.862C442.441 462.45 422.651 442.661 398.239 442.661C373.828 442.661 354.038 462.45 354.038 486.862C354.038 511.274 373.828 531.064 398.239 531.064Z" fill="#2F2E41"/>
<path d="M431.129 518.039C439.844 502.097 433.985 482.108 418.043 473.393C402.1 464.678 382.111 470.537 373.396 486.48C364.681 502.422 370.54 522.411 386.483 531.126C402.426 539.841 422.414 533.982 431.129 518.039Z" fill="#FFB8B8"/>
<path d="M367.695 481.567C375.212 486.748 384.135 489.506 393.266 489.469C390.009 491.728 386.301 493.253 382.398 493.94C394.537 496.544 407.083 496.615 419.251 494.147C421.956 493.714 424.566 492.817 426.966 491.498C428.162 490.83 429.204 489.917 430.025 488.82C430.845 487.723 431.426 486.465 431.728 485.129C432.537 480.51 428.937 476.313 425.197 473.485C419.47 469.221 412.867 466.283 405.865 464.884C398.864 463.485 391.639 463.66 384.713 465.395C380.191 466.564 375.66 468.539 372.723 472.171C369.786 475.803 368.916 481.402 371.714 485.142L367.695 481.567Z" fill="#2F2E41"/>
<path d="M400.944 593.944C379.297 593.937 358.377 586.126 342.023 571.943C325.669 557.759 314.978 538.155 311.909 516.726C308.84 495.297 313.6 473.481 325.316 455.278C337.033 437.074 354.919 423.706 375.694 417.624C396.47 411.542 418.742 413.155 438.425 422.166C458.108 431.177 473.882 446.983 482.853 466.684C491.825 486.384 493.393 508.66 487.27 529.423C481.146 550.186 467.742 568.046 449.515 579.725C435.021 589.019 418.162 593.955 400.944 593.944V593.944ZM400.944 415.944C383.537 415.943 366.521 421.103 352.046 430.773C337.572 440.443 326.291 454.188 319.628 470.269C312.966 486.351 311.223 504.047 314.618 521.12C318.014 538.193 326.396 553.875 338.705 566.184C351.013 578.492 366.696 586.875 383.768 590.27C400.841 593.666 418.537 591.922 434.619 585.26C450.701 578.598 464.446 567.316 474.116 552.842C483.786 538.368 488.946 521.351 488.944 503.944C488.918 480.613 479.638 458.245 463.141 441.748C446.643 425.25 424.275 415.971 400.944 415.944V415.944Z" fill="#3F3D56"/>
<path d="M561.265 382.714C568.518 382.714 574.398 376.834 574.398 369.581C574.398 362.327 568.518 356.447 561.265 356.447C554.011 356.447 548.131 362.327 548.131 369.581C548.131 376.834 554.011 382.714 561.265 382.714Z" fill="#FE725D"/>
<path d="M863.861 442.254H554.781C553.86 442.255 552.948 442.074 552.098 441.723C551.247 441.371 550.474 440.856 549.822 440.205C549.171 439.555 548.654 438.782 548.302 437.932C547.949 437.081 547.768 436.17 547.768 435.249C547.768 434.329 547.949 433.417 548.302 432.567C548.654 431.716 549.171 430.944 549.822 430.293C550.474 429.643 551.247 429.127 552.098 428.775C552.948 428.424 553.86 428.243 554.781 428.244H863.861C865.718 428.244 867.5 428.982 868.814 430.296C870.127 431.61 870.865 433.391 870.865 435.249C870.865 437.107 870.127 438.888 868.814 440.202C867.5 441.516 865.718 442.254 863.861 442.254Z" fill="#E6E6E6"/>
<path d="M763.169 412.484H554.781C553.86 412.485 552.948 412.305 552.098 411.953C551.247 411.602 550.474 411.086 549.822 410.435C549.171 409.785 548.654 409.012 548.302 408.162C547.949 407.311 547.768 406.4 547.768 405.479C547.768 404.559 547.949 403.647 548.302 402.797C548.654 401.946 549.171 401.174 549.822 400.523C550.474 399.873 551.247 399.357 552.098 399.006C552.948 398.654 553.86 398.474 554.781 398.475H763.169C765.025 398.477 766.805 399.216 768.117 400.529C769.428 401.843 770.165 403.623 770.165 405.479C770.165 407.336 769.428 409.116 768.117 410.429C766.805 411.743 765.025 412.482 763.169 412.484V412.484Z" fill="#E6E6E6"/>
<path d="M552.092 532.768C565.625 532.768 576.596 531.55 576.596 530.048C576.596 528.546 565.625 527.328 552.092 527.328C538.559 527.328 527.588 528.546 527.588 530.048C527.588 531.55 538.559 532.768 552.092 532.768Z" fill="#F2F2F2"/>
<path d="M335.644 252.768C349.177 252.768 360.147 251.55 360.147 250.048C360.147 248.546 349.177 247.328 335.644 247.328C322.11 247.328 311.14 248.546 311.14 250.048C311.14 251.55 322.11 252.768 335.644 252.768Z" fill="#F2F2F2"/>
</g>
<defs>
<clipPath id="clip0_2:2">
<rect width="891.295" height="745.194" fill="white"/>
</clipPath>
</defs>
</svg>
