<svg width="370" height="70" viewBox="0 0 370 70" fill="none" xmlns="http://www.w3.org/2000/svg">
<g clip-path="url(#clip0_0:3)">
<path d="M0.00524962 20.5021C0.00437462 31.8255 9.17962 41.0008 20.503 41.0042C31.8325 41.0008 41.0042 31.8264 41.0042 20.5021C41.0042 9.177 31.8281 -0.000874488 20.503 0.00262551L0 0.00437539L0.00524962 20.5021Z" fill="#3B82F6"/>
<path d="M69.9912 49.497C69.9939 38.1754 60.8169 28.9949 49.4979 28.9949C38.1675 28.9949 28.994 38.1771 28.994 49.4996C28.994 60.8195 38.1728 69.9991 49.4979 69.9965H70L69.9912 49.497Z" fill="#3B82F6"/>
<path d="M58.3336 23.3328C64.7768 23.3328 70 18.1095 70 11.6664C70 5.22321 64.7768 0 58.3336 0C51.8905 0 46.6673 5.22321 46.6673 11.6664C46.6673 18.1095 51.8905 23.3328 58.3336 23.3328Z" fill="#3B82F6"/>
<path d="M20.4164 59.7905C20.4164 65.4272 15.8427 69.9991 10.2051 69.9991C4.56837 69.9991 0 65.4272 0 59.7905C0 54.1546 4.56837 49.5827 10.206 49.5827C15.8436 49.5827 20.4164 54.1546 20.4164 59.7905Z" fill="#3B82F6"/>
<path d="M107.416 40.9139H115.733V46.8923C115.733 50.4794 112.822 53.3906 109.235 53.3906H96.4983C92.9113 53.3906 90 50.4794 90 46.8923V23.4983C90 19.9113 92.9113 17 96.4983 17H109.235C112.822 17 115.733 19.9113 115.733 23.4983V29.4768H107.416V25.3698H98.3179V45.0728H107.416V40.9139V40.9139ZM140.635 31.0364V17H148.953V53.3906H140.635V39.3543H131.537V53.3906H123.219V17H131.537V31.0364H140.635ZM172.607 17L182.744 53.3906H174.426L172.971 48.14H163.977L162.521 53.3906H154.203L164.341 17H172.607V17ZM166.316 39.6662H170.631L168.448 31.9202L166.316 39.6662ZM185.343 17H211.129V25.3698H202.395V53.3906H194.077V25.3698H185.343V17ZM258.177 34.8314L261.66 17H269.978L262.908 53.3906H254.59L249.443 33.3758L244.348 53.3906H235.978L228.908 17H237.278L240.709 34.8314L245.284 17H253.654L258.177 34.8314ZM296.751 17C300.286 17 303.301 19.9113 303.301 23.4983L303.197 46.9443C303.197 50.5314 300.286 53.3906 296.699 53.3906H283.91C280.375 53.3906 277.464 50.5314 277.464 46.9443V23.4983C277.464 19.9113 280.375 17 283.91 17H296.751V17ZM294.879 45.0728V25.3698H285.782V45.0728H294.879ZM329.918 17C333.505 17 336.417 19.9113 336.417 23.4983V37.1708C336.417 39.9261 334.701 42.2655 332.31 43.2013L336.417 53.3906H327.579L323.628 43.6691H319.001V53.3906H310.683V17H329.918ZM326.383 35.2993C327.319 35.2993 328.099 34.5715 328.099 33.6357V27.0334C328.099 26.0977 327.319 25.3698 326.383 25.3698H319.001V35.2993H326.383ZM369.22 17L360.642 29.9447L370 53.3906H361.162L355.132 38.3145L352.065 42.9413V53.3906H343.747V17H352.065V29.5288L360.382 17H369.22Z" fill="#fff"/>
</g>
<defs>
<clipPath id="clip0_0:3">
<rect width="370" height="69.9991" fill="white"/>
</clipPath>
</defs>
</svg>
